<svg id="Layer_1" data-name="Layer 1" xmlns="http://www.w3.org/2000/svg" viewBox="0 0 928.6 317.35"><defs><style>.cls-1{fill:#1b2a4a;}.cls-2{fill:#fff;}</style></defs><rect class="cls-1" x="-17.85" y="-9.03" width="964.29" height="335.41"/><path class="cls-2" d="M61.22,256.85H30.93l-5.21,14.78H13.34l25.91-72.45H53l25.92,72.45H66.42ZM58,247.59l-11.87-34-12,34Z"/><path class="cls-2" d="M127.73,271.63l-16.66-28.94h-9v28.94H90.15V199.29h25a31.13,31.13,0,0,1,14.11,2.91,20.23,20.23,0,0,1,8.64,7.81,21.21,21.21,0,0,1,2.86,10.93,21.7,21.7,0,0,1-4.11,12.86q-4.11,5.76-12.65,7.85l17.91,30ZM102,233.32h13.11c4.44,0,7.79-1.1,10.05-3.33s3.38-5.24,3.38-9.05-1.11-6.92-3.33-9.11-5.59-3.28-10.1-3.28H102Z"/><path class="cls-2" d="M156.93,216.26a35.21,35.21,0,0,1,13.42-13.17,39.47,39.47,0,0,1,39.14.93,32.33,32.33,0,0,1,13.06,16.09H208.29a19.17,19.17,0,0,0-7.8-8.18,23.64,23.64,0,0,0-11.56-2.75,25.28,25.28,0,0,0-12.8,3.22,22.65,22.65,0,0,0-8.8,9.16,28.78,28.78,0,0,0-3.17,13.74,29.08,29.08,0,0,0,3.17,13.8,22.54,22.54,0,0,0,8.8,9.21,25.28,25.28,0,0,0,12.8,3.22,23.53,23.53,0,0,0,11.56-2.75,19.11,19.11,0,0,0,7.8-8.18h14.26a32,32,0,0,1-13.06,16,38,38,0,0,1-20.56,5.63,37.36,37.36,0,0,1-18.63-4.74,35.29,35.29,0,0,1-13.37-13.17,39.11,39.11,0,0,1,0-38.09Z"/><path class="cls-2" d="M294.17,199.29v72.34H282.3v-32h-34v32H236.4V199.29h11.86v31.23h34V199.29Z"/><path class="cls-2" d="M321.65,208.45v22h25v9.16h-25v22.8h28.1v9.26h-40V199.18h40v9.27Z"/><path class="cls-2" d="M401.9,271.63l-16.65-28.94h-9.06v28.94H364.32V199.29h25a31.1,31.1,0,0,1,14.11,2.91,20.23,20.23,0,0,1,8.64,7.81,21.21,21.21,0,0,1,2.86,10.93,21.7,21.7,0,0,1-4.11,12.86q-4.11,5.76-12.65,7.85l17.91,30Zm-25.71-38.31H389.3c4.45,0,7.79-1.1,10.05-3.33s3.38-5.24,3.38-9.05-1.11-6.92-3.33-9.11-5.59-3.28-10.1-3.28H376.19Z"/><path class="cls-2" d="M498.91,271.63l-16.65-28.94H473.2v28.94H461.33V199.29h25a31.08,31.08,0,0,1,14.1,2.91,20.23,20.23,0,0,1,8.64,7.81,21.21,21.21,0,0,1,2.87,10.93,21.7,21.7,0,0,1-4.12,12.86q-4.11,5.76-12.64,7.85l17.89,30ZM473.2,233.32h13.12c4.43,0,7.79-1.1,10-3.33s3.38-5.24,3.38-9.05-1.11-6.92-3.33-9.11-5.59-3.28-10.09-3.28H473.2Z"/><path class="cls-2" d="M541.53,267.62a35.1,35.1,0,0,1-13.42-13.21,39.23,39.23,0,0,1,0-38.15,35.21,35.21,0,0,1,13.42-13.17,39,39,0,0,1,37.27,0,34.87,34.87,0,0,1,13.37,13.17,39.65,39.65,0,0,1,0,38.15,34.77,34.77,0,0,1-13.37,13.21,39,39,0,0,1-37.27,0Zm31.39-9.26a22.89,22.89,0,0,0,8.79-9.26,29,29,0,0,0,3.18-13.8,28.67,28.67,0,0,0-3.18-13.74,22.63,22.63,0,0,0-8.79-9.16,27.07,27.07,0,0,0-25.61,0,22.57,22.57,0,0,0-8.79,9.16,28.67,28.67,0,0,0-3.18,13.74,29,29,0,0,0,3.18,13.8,22.83,22.83,0,0,0,8.79,9.26,26.64,26.64,0,0,0,25.61,0Z"/><path class="cls-2" d="M623.14,267.62a35.13,35.13,0,0,1-13.43-13.21,39.3,39.3,0,0,1,0-38.15,35.24,35.24,0,0,1,13.43-13.17,39,39,0,0,1,37.27,0,34.87,34.87,0,0,1,13.37,13.17,39.65,39.65,0,0,1,0,38.15,34.77,34.77,0,0,1-13.37,13.21,39,39,0,0,1-37.27,0Zm31.38-9.26a22.92,22.92,0,0,0,8.8-9.26,29.08,29.08,0,0,0,3.17-13.8,28.78,28.78,0,0,0-3.17-13.74,22.65,22.65,0,0,0-8.8-9.16,27.07,27.07,0,0,0-25.61,0,22.69,22.69,0,0,0-8.79,9.16A28.67,28.67,0,0,0,617,235.3a29,29,0,0,0,3.17,13.8,23,23,0,0,0,8.79,9.26,26.64,26.64,0,0,0,25.61,0Z"/><path class="cls-2" d="M732.9,199.29v9.26H702.19v22h23.95v9.15H702.19v32H690.33V199.29Z"/><path class="cls-2" d="M755.8,199.29v72.34H743.94V199.29Z"/><path class="cls-2" d="M830.85,271.63H819l-35.7-54v54H771.41V199.18h11.87L819,253.1V199.18h11.87Z"/><path class="cls-2" d="M847.45,216.26a35.24,35.24,0,0,1,13.43-13.17A39.47,39.47,0,0,1,900,204a32.33,32.33,0,0,1,13.06,16.09H898.82a19.13,19.13,0,0,0-7.81-8.18,23.6,23.6,0,0,0-11.55-2.75,25.29,25.29,0,0,0-12.81,3.22,22.69,22.69,0,0,0-8.79,9.16,28.67,28.67,0,0,0-3.17,13.74,29,29,0,0,0,3.17,13.8,22.58,22.58,0,0,0,8.79,9.21,25.29,25.29,0,0,0,12.81,3.22q9.67,0,15.77-5.46t7.34-14.83H875.4V232h39.87v9.27a35.75,35.75,0,0,1-35.81,31,37.36,37.36,0,0,1-18.63-4.74,35.39,35.39,0,0,1-13.38-13.17,39.18,39.18,0,0,1,0-38.09Z"/><polygon class="cls-2" points="778.55 165.15 720.67 134.4 664.96 104.46 560.12 159.67 519.46 137.44 368.15 55.11 148.8 164.75 135.62 164.77 245.22 100.63 368.15 30.75 489.81 95.44 544.78 125.07 544.84 73 579.96 73.03 580.04 128.15 665.08 83.3 789.14 164.59 778.55 165.15"/><rect class="cls-2" x="371.66" y="97.88" width="24.16" height="24.32"/><rect class="cls-2" x="371.68" y="128.37" width="24.08" height="24.52"/><rect class="cls-2" x="340.91" y="128.53" width="24.52" height="24.19" transform="translate(212.03 493.59) rotate(-89.92)"/><rect class="cls-2" x="341.06" y="97.87" width="24.18" height="24.31" transform="translate(-0.2 0.64) rotate(-0.1)"/><polygon class="cls-2" points="539.58 116.35 539.58 116.35 492.24 90.85 368.15 24.57 365.65 26.13 242.6 96.12 146.55 152.34 368.05 8.35 539.58 116.35"/><polygon class="cls-2" points="584.84 53.66 584.89 67.84 539.93 67.82 539.97 53.64 584.84 53.66"/><polygon class="cls-2" points="778.53 151.43 665.37 77.28 585.24 119.51 585.24 119.51 665.09 67.84 778.53 151.43"/><path class="cls-2" d="M95.33,290.5a7,7,0,0,1,0,10.3,9.31,9.31,0,0,1-6.16,1.87h-5v6.1H81.32V288.63h7.85A9.36,9.36,0,0,1,95.33,290.5ZM93.26,299a4.65,4.65,0,0,0,0-6.71,6.55,6.55,0,0,0-4.18-1.16H84.19v9h4.89A6.55,6.55,0,0,0,93.26,299Z"/><path class="cls-2" d="M126.76,308.77l-4.34-6.18c-.53,0-1,.05-1.27.05h-5v6.13h-2.86V288.63h7.84a9.34,9.34,0,0,1,6.16,1.87,6.38,6.38,0,0,1,2.25,5.16,6.75,6.75,0,0,1-1.15,4,6.53,6.53,0,0,1-3.28,2.39l4.77,6.76ZM125.24,299a4.64,4.64,0,0,0,0-6.72,6.55,6.55,0,0,0-4.18-1.16h-4.89v9.06h4.89A6.43,6.43,0,0,0,125.24,299Z"/><path class="cls-2" d="M160.33,306.27v2.5H145.72V288.63h14.21v2.51H148.6v6.18h10.09v2.45H148.6v6.5Z"/><path class="cls-2" d="M180,307.66a9.84,9.84,0,0,1-3.81-3.68,10.84,10.84,0,0,1,0-10.55,9.78,9.78,0,0,1,3.83-3.69,11.21,11.21,0,0,1,5.47-1.33,11.36,11.36,0,0,1,4.31.79,8.73,8.73,0,0,1,3.34,2.34l-1.88,1.81a7.48,7.48,0,0,0-5.66-2.38,8.25,8.25,0,0,0-4.06,1,7.31,7.31,0,0,0-2.82,2.78,8,8,0,0,0,0,7.91,7.38,7.38,0,0,0,2.82,2.78,8.36,8.36,0,0,0,4.06,1,7.44,7.44,0,0,0,5.66-2.42l1.88,1.82a8.89,8.89,0,0,1-3.36,2.35,11.85,11.85,0,0,1-9.78-.53Z"/><path class="cls-2" d="M208.71,288.63h2.88v20.14h-2.88Z"/><path class="cls-2" d="M230.62,308.29a8.94,8.94,0,0,1-3.32-1.82l1.06-2.25a8.88,8.88,0,0,0,3,1.69,10.78,10.78,0,0,0,3.69.65,6.72,6.72,0,0,0,3.74-.85,2.64,2.64,0,0,0,1.24-2.26,2.26,2.26,0,0,0-.68-1.68,4.65,4.65,0,0,0-1.67-1c-.67-.22-1.6-.49-2.81-.77a30.82,30.82,0,0,1-3.66-1.09,6.22,6.22,0,0,1-2.4-1.69,4.56,4.56,0,0,1-1-3.06,5.18,5.18,0,0,1,.86-2.91,5.82,5.82,0,0,1,2.57-2.07,10.39,10.39,0,0,1,4.29-.77,13.91,13.91,0,0,1,3.51.45,9.46,9.46,0,0,1,3,1.33l-.95,2.3a10.61,10.61,0,0,0-2.7-1.22,10.1,10.1,0,0,0-2.82-.42,6.24,6.24,0,0,0-3.67.89,2.75,2.75,0,0,0-1.22,2.3,2.23,2.23,0,0,0,.69,1.69,4.72,4.72,0,0,0,1.71,1,24.55,24.55,0,0,0,2.77.76,28.35,28.35,0,0,1,3.66,1.1,6,6,0,0,1,2.36,1.67,4.34,4.34,0,0,1,1,3,5.19,5.19,0,0,1-.87,2.89,5.84,5.84,0,0,1-2.62,2.07A10.76,10.76,0,0,1,235,309,13.46,13.46,0,0,1,230.62,308.29Z"/><path class="cls-2" d="M258.51,288.63h2.87v20.14h-2.87Z"/><path class="cls-2" d="M282.53,307.66a9.81,9.81,0,0,1-3.84-3.69,10.6,10.6,0,0,1,0-10.53,9.83,9.83,0,0,1,3.84-3.7,11.26,11.26,0,0,1,5.49-1.33,11.15,11.15,0,0,1,5.46,1.33,9.72,9.72,0,0,1,3.83,3.69,10.7,10.7,0,0,1,0,10.55,9.76,9.76,0,0,1-3.83,3.68A11,11,0,0,1,288,309,11.16,11.16,0,0,1,282.53,307.66Zm9.47-2.22a7.4,7.4,0,0,0,2.8-2.78,8.18,8.18,0,0,0,0-7.91A7.33,7.33,0,0,0,292,292a7.92,7.92,0,0,0-4-1,8.09,8.09,0,0,0-4,1,7.31,7.31,0,0,0-2.82,2.78,8.18,8.18,0,0,0,0,7.91,7.38,7.38,0,0,0,2.82,2.78,8.2,8.2,0,0,0,4,1A8,8,0,0,0,292,305.44Z"/><path class="cls-2" d="M331.91,288.63v20.14h-2.35l-12.09-15v15h-2.88V288.63H317l12.08,15v-15Z"/><path class="cls-2" d="M371.57,291.14v7h10.11v2.47H371.57v8.14h-2.86V288.63h14.21v2.51Z"/><path class="cls-2" d="M411.93,308.77l-4.34-6.18c-.53,0-1,.05-1.26.05h-5v6.13h-2.89V288.63h7.86a9.35,9.35,0,0,1,6.15,1.87,6.33,6.33,0,0,1,2.25,5.16,6.69,6.69,0,0,1-1.16,4,6.44,6.44,0,0,1-3.28,2.39l4.79,6.76ZM410.41,299a4.62,4.62,0,0,0,0-6.72,6.52,6.52,0,0,0-4.16-1.16h-4.89v9.06h4.89A6.4,6.4,0,0,0,410.41,299Z"/><path class="cls-2" d="M434.49,307.66a9.94,9.94,0,0,1-3.84-3.69,10.67,10.67,0,0,1,0-10.53,10,10,0,0,1,3.84-3.7,12,12,0,0,1,11,0,9.78,9.78,0,0,1,3.83,3.69,10.84,10.84,0,0,1,0,10.55,9.83,9.83,0,0,1-3.83,3.68,11.88,11.88,0,0,1-11,0Zm9.49-2.22a8,8,0,0,0,2.79-10.69A7.67,7.67,0,0,0,444,292a8,8,0,0,0-4-1,8.1,8.1,0,0,0-4,1,7.29,7.29,0,0,0-2.81,2.78,8.11,8.11,0,0,0,0,7.91,7.36,7.36,0,0,0,2.81,2.78,8.21,8.21,0,0,0,4,1A8.07,8.07,0,0,0,444,305.44Z"/><path class="cls-2" d="M485.22,308.77l0-14.67-7.26,12.23H476.6l-7.27-12.14v14.58h-2.76V288.63h2.34l8.41,14.16,8.29-14.16H488l0,20.14Z"/><path class="cls-2" d="M539.4,306.27v2.5H524.79V288.63H539v2.51H527.65v6.18h10.11v2.45H527.65v6.5Z"/><path class="cls-2" d="M572.77,288.63l-8.83,20.14h-2.86l-8.86-20.14h3.12l7.24,16.54,7.31-16.54Z"/><path class="cls-2" d="M601.44,306.27v2.5H586.83V288.63h14.22v2.51H589.7v6.18h10.11v2.45H589.7v6.5Z"/><path class="cls-2" d="M631.07,308.77l-4.35-6.18c-.53,0-1,.05-1.27.05h-5v6.13h-2.86V288.63h7.84a9.34,9.34,0,0,1,6.16,1.87,6.38,6.38,0,0,1,2.25,5.16,6.75,6.75,0,0,1-1.15,4,6.53,6.53,0,0,1-3.28,2.39l4.77,6.76ZM629.54,299a4.64,4.64,0,0,0,0-6.72,6.53,6.53,0,0,0-4.18-1.16h-4.89v9.06h4.89A6.41,6.41,0,0,0,629.54,299Z"/><path class="cls-2" d="M657.45,301.81v7H654.6v-7l-8-13.12h3.09l6.44,10.62,6.47-10.62h2.85Z"/><path class="cls-2" d="M711.93,303.74H701.22l-2.21,5h-3l9.12-20.14H708l9.14,20.14h-3Zm-1-2.3-4.35-9.87-4.34,9.87Z"/><path class="cls-2" d="M749,288.63v20.14h-2.35l-12.08-15v15h-2.88V288.63H734l12.09,15v-15Z"/><path class="cls-2" d="M780.47,298.59h2.76v7.85a10.8,10.8,0,0,1-3.49,1.9,12.94,12.94,0,0,1-4.13.66,11.17,11.17,0,0,1-5.5-1.34,10,10,0,0,1-3.84-3.68,10.74,10.74,0,0,1,0-10.57,9.77,9.77,0,0,1,3.86-3.68,12.39,12.39,0,0,1,9.92-.53,9,9,0,0,1,3.36,2.31l-1.79,1.79a8.08,8.08,0,0,0-5.83-2.33,8.56,8.56,0,0,0-4.14,1,7.21,7.21,0,0,0-2.85,2.76,8,8,0,0,0,0,7.94,7.39,7.39,0,0,0,2.85,2.78,9.1,9.1,0,0,0,8.82-.29Z"/><path class="cls-2" d="M800.23,288.63h2.87v17.64H814v2.5H800.23Z"/><path class="cls-2" d="M843.43,306.27v2.5H828.82V288.63H843v2.51H831.7v6.18h10.09v2.45H831.7v6.5Z"/></svg>